<svg width="348" height="36" viewBox="0 0 348 36" fill="none" xmlns="http://www.w3.org/2000/svg">
<line x1="43" y1="16.75" x2="305" y2="16.75" stroke="#E0CD67" stroke-width="0.5"/>
<line x1="28.8048" y1="19.5005" x2="319.805" y2="19.5005" stroke="#E0CD67"/>
<path d="M339.746 20.125C339.59 20.1641 339.426 20.1836 339.254 20.1836C338.863 20.1836 338.469 20.0742 338.07 19.8555C337.812 19.7461 337.598 19.6133 337.426 19.457V19.6094C337.449 20.0234 337.469 20.3828 337.484 20.6875C337.898 20.7812 338.281 20.9961 338.633 21.332C339.133 21.7852 339.422 22.293 339.5 22.8555C338.906 22.8555 338.375 22.625 337.906 22.1641C337.734 22.0312 337.594 21.8828 337.484 21.7188C337.523 22.3984 337.621 23.0117 337.777 23.5586C337.949 23.5117 338.129 23.4883 338.316 23.4883C338.621 23.4883 338.945 23.5586 339.289 23.6992C339.914 23.9414 340.352 24.3086 340.602 24.8008C340.352 24.9023 340.094 24.9531 339.828 24.9531C339.531 24.9531 339.223 24.8828 338.902 24.7422C338.527 24.5781 338.219 24.3672 337.977 24.1094C338.273 24.875 338.711 25.5078 339.289 26.0078C339.383 25.9844 339.48 25.9727 339.582 25.9727C339.879 25.9727 340.191 26.0391 340.52 26.1719C341.129 26.3984 341.574 26.7695 341.855 27.2852C341.621 27.3633 341.379 27.4023 341.129 27.4023C340.809 27.4023 340.469 27.3398 340.109 27.2148C339.641 27.0195 339.266 26.7461 338.984 26.3945C338.828 26.2461 338.676 26.0898 338.527 25.9258V25.9492C338.582 26.1836 338.609 26.4023 338.609 26.6055C338.609 26.9805 338.52 27.3203 338.34 27.625C337.871 27.2969 337.566 26.8281 337.426 26.2188C337.379 25.9922 337.355 25.7773 337.355 25.5742C337.355 25.1836 337.441 24.8242 337.613 24.4961C337.387 24.0117 337.227 23.4648 337.133 22.8555C337.031 23.168 336.844 23.4727 336.57 23.7695C336.141 24.2383 335.641 24.5117 335.07 24.5898C335.07 24.0273 335.293 23.4961 335.738 22.9961C336.121 22.582 336.559 22.3047 337.051 22.1641C337.027 21.9688 337.016 21.7539 337.016 21.5195C337.016 21.2852 337.004 21.0078 336.98 20.6875C336.746 21.0469 336.395 21.3398 335.926 21.5664C335.566 21.7305 335.215 21.8125 334.871 21.8125C334.645 21.8125 334.422 21.7773 334.203 21.707C334.438 21.2148 334.852 20.8242 335.445 20.5352C335.82 20.3633 336.176 20.2773 336.512 20.2773C336.676 20.2773 336.832 20.2969 336.98 20.3359C336.98 20.125 336.969 19.8828 336.945 19.6094C336.93 19.0156 336.824 18.3867 336.629 17.7227C336.621 17.9961 336.555 18.2695 336.43 18.543C336.188 19.1523 335.809 19.5898 335.293 19.8555C335.207 19.6211 335.164 19.3828 335.164 19.1406C335.164 18.8125 335.238 18.4766 335.387 18.1328C335.621 17.5703 335.953 17.1523 336.383 16.8789C335.82 15.2773 334.914 13.9414 333.664 12.8711C333.867 13.3008 334 13.8008 334.062 14.3711C334.461 14.6445 334.766 15.0195 334.977 15.4961C335.133 15.8555 335.211 16.1992 335.211 16.5273C335.211 16.7617 335.172 16.9922 335.094 17.2188C334.625 16.9922 334.258 16.6055 333.992 16.0586C333.969 16.0898 333.941 16.1211 333.91 16.1523C333.84 16.3867 333.758 16.6289 333.664 16.8789L333.77 16.7617L333.523 17.3828C333.836 17.6406 334.094 17.9727 334.297 18.3789C334.445 18.7383 334.52 19.0859 334.52 19.4219C334.52 19.6562 334.48 19.8828 334.402 20.1016C333.91 19.8672 333.531 19.4531 333.266 18.8594C333.164 18.625 333.098 18.3945 333.066 18.168L332.844 18.4258C332.555 18.7695 332.258 19.0781 331.953 19.3516C332.07 19.6406 332.129 19.9414 332.129 20.2539C332.129 20.4023 332.113 20.5586 332.082 20.7227C331.949 21.3789 331.664 21.8789 331.227 22.2227C331.023 21.8789 330.922 21.4883 330.922 21.0508C330.922 20.8867 330.934 20.7148 330.957 20.5352C330.988 20.3867 331.016 20.2422 331.039 20.1016C330.945 20.1875 330.848 20.2578 330.746 20.3125L330.723 20.2773C330.395 20.6758 329.961 20.9453 329.422 21.0859C329.164 21.1484 328.914 21.1797 328.672 21.1797C328.312 21.1797 327.984 21.1094 327.688 20.9688C328 20.5078 328.48 20.1914 329.129 20.0195C329.387 19.9492 329.625 19.9141 329.844 19.9141C330.047 19.9141 330.234 19.9375 330.406 19.9844C330.859 19.7031 331.293 19.3555 331.707 18.9414C331.535 18.9883 331.367 19.0117 331.203 19.0117H331.062C330.469 19.0117 329.957 18.8438 329.527 18.5078C329.949 18.1172 330.492 17.9219 331.156 17.9219C331.234 17.9141 331.312 17.9102 331.391 17.9102C331.789 17.9102 332.137 17.9922 332.434 18.1562C332.691 17.8672 332.906 17.5742 333.078 17.2773C333.078 17.207 333.09 17.1602 333.113 17.1367H333.137C333.262 16.9102 333.375 16.6797 333.477 16.4453C333.156 16.5859 332.809 16.6562 332.434 16.6562H332.293C331.691 16.6562 331.176 16.4883 330.746 16.1523C331.191 15.7539 331.746 15.5547 332.41 15.5547H332.586C332.961 15.5547 333.305 15.625 333.617 15.7656C333.656 15.5391 333.676 15.3203 333.676 15.1094V14.8867C333.637 14.1523 333.48 13.5352 333.207 13.0352C333.207 13.3555 333.137 13.6758 332.996 13.9961C332.754 14.6055 332.383 15.0469 331.883 15.3203C331.805 15.0781 331.766 14.8242 331.766 14.5586C331.766 14.2383 331.828 13.9141 331.953 13.5859C332.156 13.0938 332.434 12.7148 332.785 12.4492C332.73 12.3711 332.664 12.3047 332.586 12.25C331.969 11.7109 331.215 11.4414 330.324 11.4414H330.16C329.199 11.4727 328.336 11.8008 327.57 12.4258C327.516 12.4805 327.461 12.5078 327.406 12.5078C327.344 12.5078 327.285 12.4688 327.23 12.3906C327.191 12.3359 327.172 12.2812 327.172 12.2266C327.172 12.1406 327.215 12.0508 327.301 11.957C328.145 11.3008 329.086 10.9648 330.125 10.9492H330.23C330.879 10.9492 331.633 11.043 332.492 11.2305C333.398 11.4258 334.344 11.832 335.328 12.4492C335.836 12.8164 336.277 13.1484 336.652 13.4453C337.004 13.2812 337.383 13.1992 337.789 13.1992C337.93 13.1992 338.078 13.207 338.234 13.2227C338.898 13.3477 339.402 13.6328 339.746 14.0781C339.41 14.2734 339.027 14.3711 338.598 14.3711C338.426 14.3711 338.25 14.3594 338.07 14.3359C337.812 14.3047 337.574 14.2383 337.355 14.1367C337.402 14.1914 337.453 14.2539 337.508 14.3242C337.867 14.7695 338.164 15.1523 338.398 15.4727C338.633 15.3945 338.871 15.3555 339.113 15.3555C339.402 15.3555 339.703 15.4102 340.016 15.5195C340.625 15.707 341.078 16.0508 341.375 16.5508C341.117 16.6445 340.844 16.6914 340.555 16.6914C340.258 16.6914 339.953 16.6445 339.641 16.5508C339.469 16.4961 339.309 16.4336 339.16 16.3633C339.582 16.8086 340.008 17.1758 340.438 17.4648C340.766 17.1367 341.195 16.9258 341.727 16.832C341.953 16.7773 342.176 16.75 342.395 16.75C342.77 16.75 343.121 16.8438 343.449 17.0312C343.09 17.4609 342.598 17.7422 341.973 17.875C341.793 17.9219 341.633 17.957 341.492 17.9805C341.812 18.0742 342.141 18.1211 342.477 18.1211C342.758 18.1211 343.043 18.0859 343.332 18.0156C343.574 17.6328 343.941 17.3438 344.434 17.1484C344.777 17 345.113 16.9258 345.441 16.9258C345.676 16.9258 345.906 16.9609 346.133 17.0312C345.883 17.5469 345.461 17.9258 344.867 18.168C344.508 18.3398 344.152 18.4258 343.801 18.4258C343.707 18.457 343.609 18.4844 343.508 18.5078C343.148 18.6016 342.789 18.6484 342.43 18.6484C342.242 18.6484 342.062 18.6367 341.891 18.6133C342.336 19.0977 342.559 19.6367 342.559 20.2305C342.004 20.1445 341.504 19.8516 341.059 19.3516C340.684 18.9531 340.469 18.5117 340.414 18.0273C340.055 17.832 339.711 17.5859 339.383 17.2891C339.461 17.4766 339.508 17.6875 339.523 17.9219C339.539 18.0625 339.547 18.2031 339.547 18.3438C339.547 18.7344 339.465 19.0938 339.301 19.4219C339.504 19.6328 339.652 19.8672 339.746 20.125ZM336.793 16.7617C337.035 17.4336 337.211 18.0352 337.32 18.5664C337.727 18.5664 338.133 18.6797 338.539 18.9062C338.586 18.9219 338.629 18.9414 338.668 18.9648C338.551 18.6992 338.469 18.4102 338.422 18.0977C338.406 17.9492 338.398 17.8047 338.398 17.6641C338.398 17.2344 338.488 16.8594 338.668 16.5391C338.574 16.4219 338.477 16.3008 338.375 16.1758C338.211 15.9805 338.012 15.7383 337.777 15.4492C337.801 15.5195 337.812 15.5898 337.812 15.6602V15.7539C337.812 16.3633 337.656 16.8867 337.344 17.3242C336.953 16.9023 336.734 16.375 336.688 15.7422C336.672 15.6484 336.664 15.5586 336.664 15.4727C336.664 15.0664 336.742 14.6992 336.898 14.3711C336.406 13.8555 335.758 13.3281 334.953 12.7891C334.336 12.3906 333.707 12.0742 333.066 11.8398C334.855 13.043 336.098 14.6836 336.793 16.7617Z" fill="#E0CD67"/>
<path d="M313.626 11.9424C313.479 11.7256 313.406 11.5205 313.406 11.3271V11.2744C313.383 11.3682 313.371 11.459 313.371 11.5469C313.371 11.8105 313.456 12.0654 313.626 12.3115C313.831 12.6514 314.153 12.8564 314.593 12.9268C314.558 12.9678 314.528 13.0059 314.505 13.041C314.153 13.0293 313.878 12.9121 313.679 12.6895C313.913 13.0176 314.145 13.2021 314.373 13.2432C314.338 13.3018 314.309 13.3545 314.285 13.4014C313.699 13.1143 313.31 12.7217 313.116 12.2236C312.958 11.8193 312.879 11.4648 312.879 11.1602C312.879 11.002 312.896 10.8555 312.932 10.7207C313.055 10.3457 313.371 10.0557 313.881 9.85059C314.139 10.4189 314.698 10.9053 315.56 11.3096C315.478 11.4443 315.325 11.5117 315.103 11.5117C315.091 11.5117 315.079 11.5059 315.067 11.4941C314.827 11.4941 314.634 11.3594 314.487 11.0898C314.604 11.3711 314.742 11.5703 314.9 11.6875C314.525 11.5586 314.265 11.3594 314.118 11.0898C314.3 11.4883 314.622 11.7725 315.085 11.9424C314.974 11.9834 314.859 12.0039 314.742 12.0039C314.596 12.0039 314.443 11.9717 314.285 11.9072C314.004 11.8018 313.79 11.6143 313.644 11.3447C313.825 11.7549 314.062 12.0156 314.355 12.127C314.525 12.1914 314.695 12.2236 314.865 12.2236C314.977 12.2236 315.079 12.209 315.173 12.1797C315.021 12.2559 314.856 12.2939 314.681 12.2939C314.587 12.2939 314.484 12.2822 314.373 12.2588C314.098 12.1943 313.866 12.0479 313.679 11.8193C313.778 12.0889 314.065 12.3086 314.54 12.4785C314.089 12.3672 313.784 12.1885 313.626 11.9424ZM317.036 12.2588C317.071 12.5576 317.145 12.7949 317.256 12.9707C316.939 12.7129 316.752 12.4375 316.693 12.1445C316.74 12.584 316.963 12.9561 317.361 13.2607C317.086 13.2607 316.831 13.1641 316.597 12.9707C316.345 12.7715 316.192 12.5283 316.14 12.2412C316.181 12.6748 316.389 13.0439 316.764 13.3486C316.131 13.1084 315.773 12.7744 315.691 12.3467C315.674 12.2764 315.665 12.2031 315.665 12.127C315.665 11.7871 315.817 11.4648 316.122 11.1602C316.515 10.7852 317.209 10.5801 318.205 10.5449C317.719 10.7031 317.414 11.0781 317.291 11.6699C317.268 11.793 317.256 11.916 317.256 12.0391C317.256 12.4609 317.432 12.7949 317.783 13.041C317.344 12.8066 317.095 12.5459 317.036 12.2588ZM321.158 9.39355C321.475 8.9541 321.674 8.43848 321.756 7.84668C321.674 8.24512 321.527 8.59668 321.316 8.90137C321.211 9.08301 321.097 9.22363 320.974 9.32324C320.897 9.03027 320.859 8.75488 320.859 8.49707C320.859 8.32715 320.88 8.15723 320.921 7.9873C320.81 8.36816 320.754 8.70215 320.754 8.98926C320.754 9.06543 320.76 9.13867 320.771 9.20898C320.648 9.10352 320.563 8.93359 320.517 8.69922C320.481 8.56445 320.464 8.4209 320.464 8.26855C320.464 8.06934 320.493 7.85547 320.552 7.62695C320.47 7.93164 320.429 8.23633 320.429 8.54102C320.429 8.81641 320.464 9.10059 320.534 9.39355C320.294 8.78418 320.174 8.24512 320.174 7.77637C320.174 7.66504 320.18 7.55371 320.191 7.44238C320.262 6.99121 320.394 6.62207 320.587 6.33496C320.271 6.72168 320.077 7.17578 320.007 7.69727C319.972 7.89062 319.954 8.08105 319.954 8.26855C319.954 8.56738 320.001 8.8457 320.095 9.10352L320.244 9.44629C319.963 9.0127 319.822 8.61133 319.822 8.24219V8.11914C319.775 8.44727 319.752 8.70801 319.752 8.90137C319.752 9.05957 319.764 9.16797 319.787 9.22656C319.822 9.31445 319.84 9.37012 319.84 9.39355V9.41113C319.828 9.41113 319.816 9.39941 319.805 9.37598C319.746 9.3291 319.661 9.21484 319.55 9.0332C319.392 8.76367 319.312 8.42969 319.312 8.03125C319.312 7.82031 319.33 7.59473 319.365 7.35449C319.5 6.66309 319.86 6.15918 320.446 5.84277C320.698 5.71973 320.93 5.6582 321.141 5.6582C321.428 5.6582 321.683 5.77832 321.905 6.01855C322.292 6.45801 322.497 7 322.521 7.64453C322.397 7.7793 322.301 7.91406 322.23 8.04883C322.072 8.34766 321.958 8.64355 321.888 8.93652C321.595 9.22949 321.352 9.38184 321.158 9.39355ZM318.82 10.835C318.738 11.0049 318.697 11.1924 318.697 11.3975V11.5469C318.721 11.8867 318.902 12.1973 319.242 12.4785C319.084 12.332 319.005 12.1182 319.005 11.8369C319.005 11.7256 319.017 11.5967 319.04 11.4502C319.14 10.9932 319.342 10.6592 319.646 10.4482C319.412 10.8408 319.295 11.2129 319.295 11.5645C319.295 11.9629 319.436 12.3379 319.717 12.6895C319.57 12.291 319.497 11.9219 319.497 11.582C319.497 11.459 319.509 11.3359 319.532 11.2129C319.608 10.8027 319.875 10.5918 320.332 10.5801H320.429C320.851 10.5801 321.167 10.627 321.378 10.7207C320.839 11.0137 320.528 11.3301 320.446 11.6699C320.423 11.7578 320.411 11.8486 320.411 11.9424C320.411 12.1885 320.496 12.4521 320.666 12.7334C320.578 12.5635 320.534 12.3848 320.534 12.1973C320.534 12.0918 320.546 11.9893 320.569 11.8896C320.657 11.5498 320.883 11.3184 321.246 11.1953C321.439 11.1484 321.645 11.125 321.861 11.125C322.072 11.125 322.286 11.1484 322.503 11.1953H322.397C321.46 11.1953 320.991 11.6523 320.991 12.5664C320.991 12.9648 321.059 13.2432 321.193 13.4014C321.07 13.4541 320.912 13.4805 320.719 13.4805C320.484 13.4805 320.197 13.4424 319.857 13.3662C318.826 13.1729 318.231 12.7656 318.073 12.1445C318.038 12.0391 318.021 11.9307 318.021 11.8193C318.021 11.3799 318.287 11.0518 318.82 10.835ZM314.215 9.19141C314.373 8.83984 314.634 8.50586 314.997 8.18945C315.249 7.96094 315.545 7.80859 315.885 7.73242C315.873 7.86719 315.867 7.99023 315.867 8.10156C315.867 8.30664 315.894 8.49414 315.946 8.66406C316.198 9.43164 316.579 9.98535 317.089 10.3252C317.054 10.3721 316.922 10.3955 316.693 10.3955C316.693 10.4072 316.688 10.4131 316.676 10.4131C316.465 10.4131 316.269 10.3105 316.087 10.1055C315.894 9.87695 315.791 9.61035 315.779 9.30566V9.42871C315.779 9.83301 315.926 10.1992 316.219 10.5273C315.949 10.4629 315.724 10.3223 315.542 10.1055C315.349 9.87695 315.246 9.61035 315.234 9.30566V9.48145C315.234 9.85059 315.331 10.1436 315.524 10.3604C315.647 10.5186 315.8 10.6328 315.981 10.7031C315.8 10.6797 315.624 10.6211 315.454 10.5273C315.185 10.3809 315 10.1611 314.9 9.86816C314.988 10.208 315.117 10.457 315.287 10.6152C314.572 10.1055 314.215 9.63086 314.215 9.19141ZM314.593 7.79395C314.388 7.97559 314.229 8.1748 314.118 8.3916C314.276 7.77051 314.61 7.35742 315.12 7.15234C315.378 7.05273 315.615 7.00293 315.832 7.00293C315.92 7.00293 315.999 7.01172 316.069 7.0293C316.058 7.07617 316.046 7.12305 316.034 7.16992C315.478 7.22852 314.997 7.43652 314.593 7.79395ZM325.641 8.55859C325.664 8.72852 325.676 8.89258 325.676 9.05078C325.676 9.35547 325.62 9.62207 325.509 9.85059C325.304 10.2373 325.072 10.542 324.814 10.7646C325.096 10.46 325.304 10.0703 325.438 9.5957C325.521 9.26758 325.562 8.95703 325.562 8.66406V8.46191C325.591 8.48535 325.617 8.51758 325.641 8.55859ZM325.421 7.69727C325.028 7.55078 324.656 7.47754 324.305 7.47754C323.965 7.47754 323.643 7.54492 323.338 7.67969C323.754 7.39844 324.161 7.22266 324.56 7.15234C324.694 7.12891 324.817 7.11719 324.929 7.11719C325.134 7.11719 325.286 7.16406 325.386 7.25781C325.468 7.3457 325.509 7.4248 325.509 7.49512C325.509 7.57129 325.479 7.63867 325.421 7.69727ZM323.54 8.17188C323.786 8.07812 324.041 8.03125 324.305 8.03125C324.574 8.03125 324.855 8.07812 325.148 8.17188C325.148 8.46484 325.099 8.76953 324.999 9.08594C324.829 9.63086 324.495 10.123 323.997 10.5625C324.278 9.77148 324.419 9.12109 324.419 8.61133C324.419 8.44141 324.407 8.28906 324.384 8.1543C324.396 8.27734 324.401 8.40039 324.401 8.52344C324.401 8.81055 324.352 9.11816 324.252 9.44629C324.082 9.98535 323.839 10.4043 323.522 10.7031C323.704 10.4512 323.851 10.1436 323.962 9.78027C324.044 9.4873 324.085 9.18848 324.085 8.88379C324.085 8.64355 324.062 8.40039 324.015 8.1543C324.026 8.27734 324.032 8.40039 324.032 8.52344C324.032 8.81055 323.985 9.11816 323.892 9.44629C323.78 9.81543 323.634 10.126 323.452 10.3779C323.511 10.2432 323.558 10.1025 323.593 9.95605C323.681 9.66895 323.725 9.37305 323.725 9.06836C323.725 8.82227 323.701 8.5791 323.654 8.33887C323.666 8.46191 323.672 8.58203 323.672 8.69922C323.672 8.99219 323.622 9.30273 323.522 9.63086C323.44 9.92383 323.224 10.3135 322.872 10.7998C322.843 10.665 322.828 10.5303 322.828 10.3955C322.828 10.3135 322.834 10.2285 322.846 10.1406C322.863 9.61914 323.01 9.15918 323.285 8.76074C322.822 9.31738 322.585 9.89453 322.573 10.4922C322.55 10.293 322.538 10.1084 322.538 9.93848C322.538 9.5166 322.617 9.1416 322.775 8.81348C322.547 9.22363 322.4 9.56934 322.336 9.85059C322.324 9.79199 322.318 9.73047 322.318 9.66602C322.318 9.41406 322.397 9.16504 322.556 8.91895C322.749 8.61426 323.077 8.36523 323.54 8.17188ZM325.509 8.40918C325.497 8.67871 325.45 8.96582 325.368 9.27051C325.198 9.81543 324.779 10.3486 324.111 10.8701C324.592 10.4424 324.911 9.95605 325.069 9.41113C325.169 9.07129 325.219 8.75488 325.219 8.46191C325.219 8.37988 325.213 8.29492 325.201 8.20703C325.312 8.27148 325.415 8.33887 325.509 8.40918ZM327.258 10.5098C327.469 10.6797 327.621 10.8672 327.715 11.0723C327.316 11.8516 326.88 12.3115 326.405 12.4521C326.065 12.5635 325.793 12.6191 325.588 12.6191C325.512 12.6191 325.45 12.6133 325.403 12.6016C326.364 12.2852 326.953 11.8662 327.17 11.3447C326.965 11.626 326.654 11.8574 326.238 12.0391C326.578 11.8574 326.76 11.4854 326.783 10.9229C326.666 11.3271 326.49 11.6025 326.256 11.749C326.016 11.9775 325.693 12.0977 325.289 12.1094C326.203 11.7227 326.66 11.1514 326.66 10.3955V10.3076C326.572 10.7588 326.285 11.1543 325.799 11.4941C325.447 11.7461 325.049 11.8721 324.604 11.8721C324.416 11.8721 324.226 11.8545 324.032 11.8193H324.27C324.791 11.8193 325.204 11.7109 325.509 11.4941C325.849 11.2363 326.03 10.8643 326.054 10.3779C326.007 10.7061 325.831 10.9785 325.526 11.1953C325.222 11.4297 324.882 11.5527 324.507 11.5645C325.116 11.3301 325.62 10.832 326.019 10.0703V10.0527C326.493 10.0645 326.906 10.2168 327.258 10.5098ZM327.645 10.1055C327.217 9.75391 326.73 9.56055 326.186 9.52539C326.186 9.47266 326.191 9.42285 326.203 9.37598C326.736 9.46387 327.173 9.64551 327.513 9.9209C327.829 10.1904 327.987 10.3662 327.987 10.4482V10.4658C327.894 10.3369 327.779 10.2168 327.645 10.1055ZM324.779 15.0801C325.377 15.4434 325.869 15.625 326.256 15.625C326.291 15.625 326.329 15.6191 326.37 15.6074C326.78 15.5723 327.082 15.3174 327.275 14.8428C327.158 15.1006 326.915 15.2705 326.546 15.3525C326.452 15.376 326.344 15.3877 326.221 15.3877C325.969 15.3877 325.696 15.3232 325.403 15.1943C325.146 15.083 324.938 14.8516 324.779 14.5C325.207 14.875 325.614 15.0742 326.001 15.0977H326.115C326.443 15.0977 326.722 15.001 326.95 14.8076C326.804 14.8662 326.61 14.8955 326.37 14.8955H326.15C325.617 14.8721 325.148 14.5439 324.744 13.9111C325.072 14.292 325.43 14.5234 325.816 14.6055C326.027 14.6523 326.247 14.6758 326.476 14.6758C326.634 14.6758 326.792 14.6641 326.95 14.6406C327.337 14.582 327.574 14.5029 327.662 14.4033C327.721 14.3564 327.768 14.333 327.803 14.333C327.832 14.333 327.853 14.3447 327.864 14.3682C327.876 14.3916 327.882 14.4238 327.882 14.4648C327.882 14.582 327.832 14.8047 327.732 15.1328C327.627 15.4844 327.384 15.7334 327.003 15.8799C326.81 15.9678 326.604 16.0117 326.388 16.0117C326.206 16.0117 326.024 15.9883 325.843 15.9414C325.948 15.9531 326.051 15.959 326.15 15.959C326.414 15.959 326.663 15.9033 326.897 15.792C327.237 15.6338 327.431 15.3467 327.478 14.9307C327.272 15.4932 326.909 15.7803 326.388 15.792C326.364 15.8037 326.347 15.8096 326.335 15.8096C325.819 15.8096 325.301 15.5664 324.779 15.0801ZM327.39 14.0957C327.108 14.1953 326.833 14.2451 326.563 14.2451C326.188 14.2451 325.831 14.1396 325.491 13.9287C324.946 13.5889 324.624 13.2871 324.524 13.0234C324.917 13.3867 325.33 13.6709 325.764 13.876C326.092 14.0459 326.476 14.1309 326.915 14.1309C327.062 14.1309 327.22 14.1191 327.39 14.0957ZM316.254 17.2158C316.154 17.3096 316.104 17.4473 316.104 17.6289V17.6904C316.14 17.5029 316.28 17.374 316.526 17.3037C316.491 17.374 316.474 17.4648 316.474 17.5762C316.474 17.7227 316.509 17.8984 316.579 18.1035V18.0332C316.579 17.8164 316.714 17.6406 316.983 17.5059C316.972 17.5527 316.966 17.6143 316.966 17.6904C316.966 17.8193 316.989 17.9746 317.036 18.1562V18.0684C317.036 17.8516 317.145 17.6816 317.361 17.5586C317.338 17.6348 317.326 17.7139 317.326 17.7959C317.326 18.001 317.405 18.2559 317.563 18.5605C317.505 18.4258 317.476 18.2998 317.476 18.1826C317.476 18.0361 317.522 17.9014 317.616 17.7783C317.657 17.7314 317.713 17.708 317.783 17.708C317.842 17.708 317.909 17.7197 317.985 17.7432C318.009 17.8779 318.088 18.0947 318.223 18.3936C318.064 18.5049 317.912 18.5781 317.766 18.6133C317.666 18.6367 317.563 18.6484 317.458 18.6484C317.153 18.6484 316.831 18.5342 316.491 18.3057C316.04 17.9893 315.797 17.6318 315.762 17.2334V17.1367C315.762 17.043 315.773 16.9404 315.797 16.8291C315.943 16.999 316.096 17.1279 316.254 17.2158ZM322.573 17.5762C322.573 17.916 322.696 18.2148 322.942 18.4727C322.843 18.3262 322.793 18.1123 322.793 17.8311V17.6465C322.857 17.9863 323.101 18.2852 323.522 18.543C323.329 18.3613 323.183 18.0566 323.083 17.6289C323.522 18.0684 323.944 18.332 324.349 18.4199C324.331 18.5371 324.305 18.6631 324.27 18.7979C324.064 18.8213 323.865 18.833 323.672 18.833C322.623 18.833 321.844 18.5312 321.334 17.9277C321.615 17.8281 321.841 17.7109 322.011 17.5762C321.999 17.6523 321.993 17.7314 321.993 17.8135C321.993 18.042 322.061 18.2617 322.195 18.4727C322.16 18.3848 322.143 18.2734 322.143 18.1387C322.143 17.9688 322.166 17.7695 322.213 17.541V17.5938C322.213 17.9863 322.327 18.3027 322.556 18.543C322.474 18.4199 322.433 18.2148 322.433 17.9277C322.433 17.8047 322.438 17.6699 322.45 17.5234C322.485 17.5469 322.526 17.5645 322.573 17.5762ZM325.746 17.5762C325.518 17.8223 325.222 17.9453 324.858 17.9453H324.762C324.352 17.916 324.067 17.6611 323.909 17.1807C324.284 17.5908 324.697 17.8018 325.148 17.8135C324.855 17.7783 324.545 17.5967 324.217 17.2686C324.486 17.4502 324.785 17.541 325.113 17.541C325.207 17.541 325.304 17.5352 325.403 17.5234H325.368C325.075 17.5234 324.697 17.2246 324.234 16.627C324.832 16.9551 325.348 17.1191 325.781 17.1191C325.893 17.1191 326.004 17.1074 326.115 17.084C326.039 17.2188 325.916 17.3828 325.746 17.5762ZM325.781 16.9434C325.746 16.9551 325.711 16.9609 325.676 16.9609C325.471 16.9609 325.204 16.8701 324.876 16.6885C324.536 16.501 324.366 16.1465 324.366 15.625V15.4229C324.958 16.1436 325.6 16.5508 326.291 16.6445C326.174 16.8027 326.004 16.9023 325.781 16.9434ZM320.719 18.7627C320.561 18.5342 320.481 18.291 320.481 18.0332H320.754C320.877 18.2383 321.07 18.4873 321.334 18.7803C321.217 18.9736 321.079 19.1816 320.921 19.4043C319.608 19.0352 318.841 18.543 318.618 17.9277H318.715C318.85 17.9277 319.031 17.9072 319.26 17.8662C319.248 17.9307 319.242 17.9922 319.242 18.0508C319.242 18.209 319.277 18.373 319.348 18.543C319.324 18.4727 319.312 18.3994 319.312 18.3232C319.312 18.165 319.362 17.9951 319.462 17.8135V17.9277C319.462 18.1797 319.541 18.4463 319.699 18.7275C319.676 18.6514 319.664 18.5781 319.664 18.5078C319.664 18.3379 319.717 18.1445 319.822 17.9277V18.0859C319.822 18.4375 319.928 18.7539 320.139 19.0352C320.062 18.9121 320.024 18.7305 320.024 18.4902C320.024 18.3438 320.036 18.1738 320.06 17.9805C320.147 18.0039 320.232 18.0215 320.314 18.0332C320.367 18.2383 320.502 18.4814 320.719 18.7627ZM313.916 15.1943C313.945 15.1533 313.995 15.1328 314.065 15.1328C314.124 15.1328 314.215 15.1533 314.338 15.1943C314.203 15.3232 314.083 15.4844 313.978 15.6777C313.866 15.4023 313.811 15.1357 313.811 14.8779C313.811 14.5498 313.901 14.2539 314.083 13.9902C314.083 14.4238 314.121 14.7314 314.197 14.9131C314.051 14.9893 313.957 15.083 313.916 15.1943ZM315.357 15.7744C315.369 15.9326 315.396 16.0645 315.437 16.1699C315.384 16.293 315.34 16.4102 315.305 16.5215H315.199C315.041 16.5215 314.895 16.498 314.76 16.4512C314.883 16.123 315.082 15.8975 315.357 15.7744ZM314.408 15.959C314.496 15.7891 314.666 15.6777 314.918 15.625C314.789 15.8184 314.698 16.0732 314.646 16.3896C314.394 16.2725 314.183 16.0615 314.013 15.7568C314.118 15.5518 314.312 15.4492 314.593 15.4492C314.534 15.5898 314.473 15.7598 314.408 15.959ZM322.063 14.8955C322.38 15.1299 322.679 15.2471 322.96 15.2471C323.007 15.2471 323.054 15.2412 323.101 15.2295C323.405 15.1533 323.669 14.9277 323.892 14.5527C323.722 14.793 323.496 14.9395 323.215 14.9922C323.139 15.0039 323.065 15.0098 322.995 15.0098C322.825 15.0098 322.661 14.9717 322.503 14.8955C322.562 14.9072 322.629 14.9131 322.705 14.9131C322.764 14.9131 322.831 14.9072 322.907 14.8955C323.224 14.8369 323.484 14.6084 323.689 14.21C323.52 14.4502 323.294 14.5996 323.013 14.6582C322.942 14.6699 322.869 14.6758 322.793 14.6758C322.646 14.6758 322.509 14.6465 322.38 14.5879C322.731 14.5293 323.004 14.3037 323.197 13.9111C323.039 14.1689 322.825 14.3213 322.556 14.3682H322.485C322.304 14.3682 322.11 14.2949 321.905 14.1484C322.034 14.2012 322.166 14.2275 322.301 14.2275C322.652 14.2275 322.975 14.0576 323.268 13.7178C323.414 13.5479 323.487 13.334 323.487 13.0762C323.487 12.625 323.256 12.0303 322.793 11.292C323.865 12.2764 324.413 13.1436 324.437 13.8936C324.448 13.9463 324.454 13.9961 324.454 14.043C324.454 14.7109 324.234 15.1416 323.795 15.335C323.59 15.4463 323.379 15.502 323.162 15.502C322.939 15.502 322.72 15.4404 322.503 15.3174C322.321 15.2061 322.175 15.0654 322.063 14.8955ZM320.06 16.1172C319.954 15.7656 319.901 15.4141 319.901 15.0625V14.8604C319.925 14.4385 320.089 14.0693 320.394 13.7529C320.405 13.7529 320.411 13.7588 320.411 13.7705C320.229 14.0459 320.13 14.3799 320.112 14.7725V14.9131C320.112 15.3643 320.212 15.8564 320.411 16.3896C320.3 16.0264 320.244 15.6689 320.244 15.3174V15.1152C320.268 14.6523 320.414 14.2627 320.684 13.9463C320.695 13.9639 320.707 13.9785 320.719 13.9902C320.684 14.1602 320.66 14.3535 320.648 14.5703V14.7197C320.648 15.165 320.745 15.6572 320.938 16.1963C320.827 15.8271 320.771 15.4668 320.771 15.1152V14.9131C320.783 14.6494 320.827 14.4209 320.903 14.2275C320.927 14.2744 320.95 14.3213 320.974 14.3682V14.6582C320.974 15.2207 321.059 15.7568 321.229 16.2666C321.152 16.0322 321.114 15.7715 321.114 15.4844C321.114 15.2383 321.141 14.9834 321.193 14.7197C321.205 15.9443 321.442 16.7207 321.905 17.0488C321.671 16.6738 321.554 16.3223 321.554 15.9941C321.554 15.7129 321.645 15.458 321.826 15.2295C322.061 15.5283 322.354 15.71 322.705 15.7744C322.852 15.7979 322.992 15.8096 323.127 15.8096C323.332 15.8096 323.537 15.7803 323.742 15.7217L324.146 15.5898C324.07 16.1113 323.856 16.3721 323.505 16.3721C323.493 16.3721 323.487 16.3662 323.487 16.3545C323.124 16.3545 322.919 16.1904 322.872 15.8623C322.884 16.2432 322.954 16.542 323.083 16.7588H323.065C322.849 16.5537 322.699 16.3047 322.617 16.0117C322.664 16.252 322.711 16.4219 322.758 16.5215C322.611 16.3867 322.497 16.2227 322.415 16.0293C322.573 16.4688 322.846 16.8262 323.232 17.1016H323.065C322.825 17.1016 322.632 17.0605 322.485 16.9785C322.192 16.7969 321.973 16.5537 321.826 16.249C322.008 16.7236 322.257 17.0518 322.573 17.2334H322.45C322.315 17.2334 322.175 17.2217 322.028 17.1982C321.905 17.2451 321.779 17.2686 321.65 17.2686C321.562 17.2686 321.463 17.2568 321.352 17.2334C321.111 17.1807 320.979 16.9434 320.956 16.5215C320.956 16.9609 320.997 17.2715 321.079 17.4531C320.874 17.3535 320.742 17.1953 320.684 16.9785C320.719 17.2188 320.748 17.3887 320.771 17.4883C320.625 17.4238 320.528 17.3271 320.481 17.1982C320.481 17.2568 320.511 17.3535 320.569 17.4883C320.265 17.4766 319.992 17.4092 319.752 17.2861C319.594 17.333 319.43 17.3564 319.26 17.3564C319.148 17.3564 319.034 17.3447 318.917 17.3213C319.122 17.1279 319.248 16.8848 319.295 16.5918C319.236 16.7734 319.09 16.9551 318.855 17.1367C319.002 16.9316 319.075 16.6973 319.075 16.4336C319.04 16.6387 318.882 16.7881 318.601 16.8818C318.507 16.9346 318.416 16.9609 318.328 16.9609C318.158 16.9609 318.006 16.8994 317.871 16.7764H317.818C317.736 16.7764 317.695 16.7266 317.695 16.627V16.5918L317.273 16.7939C317.42 16.6475 317.578 16.46 317.748 16.2314C317.578 16.4131 317.335 16.5713 317.019 16.7061C317.188 16.5068 317.388 16.2373 317.616 15.8975C317.458 16.0967 317.221 16.2666 316.904 16.4072C317.174 16.2021 317.405 15.918 317.599 15.5547C317.452 15.7715 317.229 15.9707 316.931 16.1523C316.772 16.252 316.614 16.3018 316.456 16.3018C316.356 16.3018 316.257 16.2842 316.157 16.249C315.917 16.1611 315.694 15.9473 315.489 15.6074C314.757 15.0859 314.391 14.582 314.391 14.0957V14.0254C314.432 13.5273 314.596 13.1436 314.883 12.874C315.064 12.7158 315.188 12.6367 315.252 12.6367C315.287 12.6367 315.305 12.6689 315.305 12.7334V12.8213C315.305 13.0146 315.401 13.2754 315.595 13.6035C315.876 14.0898 316.242 14.333 316.693 14.333H316.781C316.658 14.3682 316.529 14.3857 316.395 14.3857C316.336 14.3857 316.271 14.3799 316.201 14.3682C315.92 14.3213 315.7 14.1689 315.542 13.9111C315.747 14.3037 316.002 14.5293 316.307 14.5879C316.195 14.6465 316.075 14.6758 315.946 14.6758C315.87 14.6758 315.797 14.6699 315.727 14.6582C315.445 14.5996 315.226 14.4502 315.067 14.21C315.272 14.6084 315.533 14.8369 315.85 14.8955C315.914 14.9072 315.981 14.9131 316.052 14.9131C316.11 14.9131 316.172 14.9072 316.236 14.8955C316.078 14.9717 315.914 15.0098 315.744 15.0098C315.668 15.0098 315.595 15.0039 315.524 14.9922C315.243 14.9395 315.023 14.793 314.865 14.5527C315.07 14.9277 315.325 15.1533 315.63 15.2295C315.694 15.2412 315.756 15.2471 315.814 15.2471C316.084 15.2471 316.333 15.1621 316.562 14.9922C316.45 15.1387 316.28 15.2471 316.052 15.3174C315.882 15.3877 315.718 15.4229 315.56 15.4229H315.489C315.671 15.4639 315.841 15.4844 315.999 15.4844C316.474 15.4844 316.854 15.3203 317.142 14.9922C317.558 14.541 317.795 14.207 317.854 13.9902C317.76 14.5469 317.561 14.9307 317.256 15.1416C316.951 15.3467 316.679 15.4902 316.438 15.5723C316.837 15.5488 317.197 15.4316 317.52 15.2207C317.842 15.0039 318.044 14.5996 318.126 14.0078C318.155 14.1895 318.17 14.3477 318.17 14.4824C318.17 14.7812 318.12 14.9805 318.021 15.0801C318.302 14.875 318.448 14.626 318.46 14.333L318.311 13.7881C318.457 13.9814 318.53 14.2715 318.53 14.6582C318.53 15.0977 318.434 15.6631 318.24 16.3545C318.65 15.7217 319.069 14.8486 319.497 13.7354C319.351 14.2686 319.277 14.7285 319.277 15.1152C319.277 15.5664 319.38 15.9004 319.585 16.1172C319.597 15.5723 319.658 15.1064 319.77 14.7197C319.781 15.1533 319.878 15.6191 320.06 16.1172ZM327.372 13.6387C327.296 13.6621 327.217 13.6738 327.135 13.6738C326.807 13.6738 326.326 13.5039 325.693 13.1641C325.91 13.1523 326.136 13.1113 326.37 13.041C326.815 13.1113 327.149 13.3105 327.372 13.6387ZM319.295 9.63086C318.896 9.42578 318.697 9.2002 318.697 8.9541C318.697 8.93066 318.703 8.90137 318.715 8.86621C318.639 9.07129 318.601 9.25879 318.601 9.42871C318.601 9.5752 318.627 9.7041 318.68 9.81543C318.521 9.7041 318.387 9.55176 318.275 9.3584C318.176 9.16504 318.126 8.97168 318.126 8.77832C318.091 8.84863 318.073 8.93066 318.073 9.02441C318.073 9.18262 318.117 9.37305 318.205 9.5957C318.264 9.70703 318.331 9.79785 318.407 9.86816C318.261 9.75684 318.126 9.61035 318.003 9.42871C317.786 9.1123 317.678 8.77246 317.678 8.40918V8.30371C317.701 7.96387 317.827 7.70313 318.056 7.52148C317.692 7.75 317.499 8.05762 317.476 8.44434V8.55859C317.476 8.91016 317.584 9.25 317.801 9.57812C317.859 9.68359 317.933 9.78027 318.021 9.86816C317.862 9.79785 317.722 9.68945 317.599 9.54297C317.405 9.30859 317.303 9.03906 317.291 8.73438V8.91895C317.291 9.28223 317.388 9.5752 317.581 9.79785C317.692 9.94434 317.851 10.0586 318.056 10.1406C317.839 10.1172 317.628 10.0381 317.423 9.90332C317.019 9.65137 316.702 9.19141 316.474 8.52344C316.421 8.37695 316.395 8.21875 316.395 8.04883C316.395 7.45117 316.693 6.71582 317.291 5.84277C318.047 6.10645 318.612 6.41406 318.987 6.76562C318.899 7.18164 318.855 7.56543 318.855 7.91699C318.855 8.57324 319.002 9.14453 319.295 9.63086ZM319.277 6.33496C318.973 6.07715 318.589 5.83984 318.126 5.62305C318.565 5.64648 318.984 5.83984 319.383 6.20312C319.348 6.23828 319.312 6.28223 319.277 6.33496Z" fill="#E0CD67"/>
<path d="M8.25391 20.125C8.41016 20.1641 8.57422 20.1836 8.7461 20.1836C9.13672 20.1836 9.53125 20.0742 9.92969 19.8555C10.1875 19.7461 10.4023 19.6133 10.5742 19.457L10.5742 19.6094C10.5508 20.0234 10.5313 20.3828 10.5156 20.6875C10.1016 20.7813 9.71875 20.9961 9.36719 21.332C8.86719 21.7852 8.57813 22.293 8.5 22.8555C9.09375 22.8555 9.625 22.625 10.0938 22.1641C10.2656 22.0313 10.4063 21.8828 10.5156 21.7188C10.4766 22.3984 10.3789 23.0117 10.2227 23.5586C10.0508 23.5117 9.8711 23.4883 9.6836 23.4883C9.37891 23.4883 9.05469 23.5586 8.71094 23.6992C8.08594 23.9414 7.64844 24.3086 7.39844 24.8008C7.64844 24.9023 7.90625 24.9531 8.17188 24.9531C8.46875 24.9531 8.77735 24.8828 9.09766 24.7422C9.47266 24.5781 9.78125 24.3672 10.0234 24.1094C9.72656 24.875 9.28906 25.5078 8.71094 26.0078C8.61719 25.9844 8.51953 25.9727 8.41797 25.9727C8.1211 25.9727 7.8086 26.0391 7.48047 26.1719C6.8711 26.3984 6.42578 26.7695 6.14453 27.2852C6.37891 27.3633 6.6211 27.4023 6.8711 27.4023C7.19141 27.4023 7.53125 27.3398 7.89063 27.2148C8.35938 27.0195 8.73438 26.7461 9.01563 26.3945C9.17188 26.2461 9.32422 26.0898 9.47266 25.9258L9.47266 25.9492C9.41797 26.1836 9.39063 26.4023 9.39063 26.6055C9.39063 26.9805 9.48047 27.3203 9.66016 27.625C10.1289 27.2969 10.4336 26.8281 10.5742 26.2188C10.6211 25.9922 10.6445 25.7773 10.6445 25.5742C10.6445 25.1836 10.5586 24.8242 10.3867 24.4961C10.6133 24.0117 10.7734 23.4648 10.8672 22.8555C10.9688 23.168 11.1563 23.4727 11.4297 23.7695C11.8594 24.2383 12.3594 24.5117 12.9297 24.5898C12.9297 24.0273 12.707 23.4961 12.2617 22.9961C11.8789 22.582 11.4414 22.3047 10.9492 22.1641C10.9727 21.9688 10.9844 21.7539 10.9844 21.5195C10.9844 21.2852 10.9961 21.0078 11.0195 20.6875C11.2539 21.0469 11.6055 21.3398 12.0742 21.5664C12.4336 21.7305 12.7852 21.8125 13.1289 21.8125C13.3555 21.8125 13.5781 21.7773 13.7969 21.707C13.5625 21.2148 13.1484 20.8242 12.5547 20.5352C12.1797 20.3633 11.8242 20.2773 11.4883 20.2773C11.3242 20.2773 11.168 20.2969 11.0195 20.3359C11.0195 20.125 11.0313 19.8828 11.0547 19.6094C11.0703 19.0156 11.1758 18.3867 11.3711 17.7227C11.3789 17.9961 11.4453 18.2695 11.5703 18.543C11.8125 19.1523 12.1914 19.5898 12.707 19.8555C12.793 19.6211 12.8359 19.3828 12.8359 19.1406C12.8359 18.8125 12.7617 18.4766 12.6133 18.1328C12.3789 17.5703 12.0469 17.1523 11.6172 16.8789C12.1797 15.2773 13.0859 13.9414 14.3359 12.8711C14.1328 13.3008 14 13.8008 13.9375 14.3711C13.5391 14.6445 13.2344 15.0195 13.0234 15.4961C12.8672 15.8555 12.7891 16.1992 12.7891 16.5273C12.7891 16.7617 12.8281 16.9922 12.9063 17.2188C13.375 16.9922 13.7422 16.6055 14.0078 16.0586C14.0313 16.0898 14.0586 16.1211 14.0898 16.1523C14.1602 16.3867 14.2422 16.6289 14.3359 16.8789L14.2305 16.7617L14.4766 17.3828C14.1641 17.6406 13.9063 17.9727 13.7031 18.3789C13.5547 18.7383 13.4805 19.0859 13.4805 19.4219C13.4805 19.6563 13.5195 19.8828 13.5977 20.1016C14.0898 19.8672 14.4688 19.4531 14.7344 18.8594C14.8359 18.625 14.9023 18.3945 14.9336 18.168L15.1563 18.4258C15.4453 18.7695 15.7422 19.0781 16.0469 19.3516C15.9297 19.6406 15.8711 19.9414 15.8711 20.2539C15.8711 20.4023 15.8867 20.5586 15.918 20.7227C16.0508 21.3789 16.3359 21.8789 16.7734 22.2227C16.9766 21.8789 17.0781 21.4883 17.0781 21.0508C17.0781 20.8867 17.0664 20.7148 17.043 20.5352C17.0117 20.3867 16.9844 20.2422 16.9609 20.1016C17.0547 20.1875 17.1523 20.2578 17.2539 20.3125L17.2773 20.2773C17.6055 20.6758 18.0391 20.9453 18.5781 21.0859C18.8359 21.1484 19.0859 21.1797 19.3281 21.1797C19.6875 21.1797 20.0156 21.1094 20.3125 20.9688C20 20.5078 19.5195 20.1914 18.8711 20.0195C18.6133 19.9492 18.375 19.9141 18.1563 19.9141C17.9531 19.9141 17.7656 19.9375 17.5938 19.9844C17.1406 19.7031 16.707 19.3555 16.293 18.9414C16.4648 18.9883 16.6328 19.0117 16.7969 19.0117L16.9375 19.0117C17.5313 19.0117 18.043 18.8438 18.4727 18.5078C18.0508 18.1172 17.5078 17.9219 16.8438 17.9219C16.7656 17.9141 16.6875 17.9102 16.6094 17.9102C16.2109 17.9102 15.8633 17.9922 15.5664 18.1563C15.3086 17.8672 15.0938 17.5742 14.9219 17.2773C14.9219 17.207 14.9102 17.1602 14.8867 17.1367L14.8633 17.1367C14.7383 16.9102 14.625 16.6797 14.5234 16.4453C14.8438 16.5859 15.1914 16.6563 15.5664 16.6563L15.707 16.6563C16.3086 16.6563 16.8242 16.4883 17.2539 16.1523C16.8086 15.7539 16.2539 15.5547 15.5898 15.5547L15.4141 15.5547C15.0391 15.5547 14.6953 15.625 14.3828 15.7656C14.3438 15.5391 14.3242 15.3203 14.3242 15.1094L14.3242 14.8867C14.3633 14.1523 14.5195 13.5352 14.793 13.0352C14.793 13.3555 14.8633 13.6758 15.0039 13.9961C15.2461 14.6055 15.6172 15.0469 16.1172 15.3203C16.1953 15.0781 16.2344 14.8242 16.2344 14.5586C16.2344 14.2383 16.1719 13.9141 16.0469 13.5859C15.8438 13.0938 15.5664 12.7148 15.2148 12.4492C15.2695 12.3711 15.3359 12.3047 15.4141 12.25C16.0313 11.7109 16.7852 11.4414 17.6758 11.4414L17.8398 11.4414C18.8008 11.4727 19.6641 11.8008 20.4297 12.4258C20.4844 12.4805 20.5391 12.5078 20.5938 12.5078C20.6563 12.5078 20.7148 12.4688 20.7695 12.3906C20.8086 12.3359 20.8281 12.2813 20.8281 12.2266C20.8281 12.1406 20.7852 12.0508 20.6992 11.957C19.8555 11.3008 18.9141 10.9648 17.875 10.9492L17.7695 10.9492C17.1211 10.9492 16.3672 11.043 15.5078 11.2305C14.6016 11.4258 13.6563 11.832 12.6719 12.4492C12.1641 12.8164 11.7227 13.1484 11.3477 13.4453C10.9961 13.2813 10.6172 13.1992 10.2109 13.1992C10.0703 13.1992 9.92188 13.207 9.76563 13.2227C9.10156 13.3477 8.59766 13.6328 8.25391 14.0781C8.58984 14.2734 8.97266 14.3711 9.40234 14.3711C9.57422 14.3711 9.75 14.3594 9.92969 14.3359C10.1875 14.3047 10.4258 14.2383 10.6445 14.1367C10.5977 14.1914 10.5469 14.2539 10.4922 14.3242C10.1328 14.7695 9.83594 15.1523 9.60156 15.4727C9.36719 15.3945 9.12891 15.3555 8.88672 15.3555C8.59766 15.3555 8.29688 15.4102 7.98438 15.5195C7.375 15.707 6.92188 16.0508 6.625 16.5508C6.88281 16.6445 7.15625 16.6914 7.44531 16.6914C7.74219 16.6914 8.04688 16.6445 8.35938 16.5508C8.53125 16.4961 8.69141 16.4336 8.83984 16.3633C8.41797 16.8086 7.99219 17.1758 7.5625 17.4648C7.23438 17.1367 6.80469 16.9258 6.27344 16.832C6.04688 16.7773 5.82422 16.75 5.60547 16.75C5.23047 16.75 4.87891 16.8438 4.55078 17.0313C4.91016 17.4609 5.40235 17.7422 6.02735 17.875C6.20703 17.9219 6.36719 17.957 6.50781 17.9805C6.1875 18.0742 5.85938 18.1211 5.52344 18.1211C5.24219 18.1211 4.95703 18.0859 4.66797 18.0156C4.42578 17.6328 4.0586 17.3438 3.56641 17.1484C3.22266 17 2.88672 16.9258 2.55859 16.9258C2.32422 16.9258 2.09375 16.9609 1.86719 17.0313C2.11719 17.5469 2.53906 17.9258 3.13281 18.168C3.49219 18.3398 3.84766 18.4258 4.19922 18.4258C4.29297 18.457 4.39063 18.4844 4.49219 18.5078C4.85156 18.6016 5.21094 18.6484 5.57031 18.6484C5.75781 18.6484 5.9375 18.6367 6.10938 18.6133C5.66406 19.0977 5.44141 19.6367 5.44141 20.2305C5.9961 20.1445 6.4961 19.8516 6.94141 19.3516C7.31641 18.9531 7.53125 18.5117 7.58594 18.0273C7.94531 17.832 8.28906 17.5859 8.61719 17.2891C8.53906 17.4766 8.49219 17.6875 8.47656 17.9219C8.46094 18.0625 8.45313 18.2031 8.45313 18.3438C8.45313 18.7344 8.53516 19.0938 8.69922 19.4219C8.4961 19.6328 8.34766 19.8672 8.25391 20.125ZM11.207 16.7617C10.9648 17.4336 10.7891 18.0352 10.6797 18.5664C10.2734 18.5664 9.86719 18.6797 9.46094 18.9063C9.41406 18.9219 9.3711 18.9414 9.33203 18.9648C9.44922 18.6992 9.53125 18.4102 9.57813 18.0977C9.59375 17.9492 9.60156 17.8047 9.60156 17.6641C9.60156 17.2344 9.51172 16.8594 9.33203 16.5391C9.42578 16.4219 9.52344 16.3008 9.625 16.1758C9.78906 15.9805 9.98828 15.7383 10.2227 15.4492C10.1992 15.5195 10.1875 15.5898 10.1875 15.6602L10.1875 15.7539C10.1875 16.3633 10.3438 16.8867 10.6563 17.3242C11.0469 16.9023 11.2656 16.375 11.3125 15.7422C11.3281 15.6484 11.3359 15.5586 11.3359 15.4727C11.3359 15.0664 11.2578 14.6992 11.1016 14.3711C11.5938 13.8555 12.2422 13.3281 13.0469 12.7891C13.6641 12.3906 14.293 12.0742 14.9336 11.8398C13.1445 13.043 11.9023 14.6836 11.207 16.7617Z" fill="#E0CD67"/>
<path d="M34.374 11.9424C34.5205 11.7256 34.5938 11.5205 34.5938 11.3271L34.5938 11.2744C34.6172 11.3682 34.6289 11.459 34.6289 11.5469C34.6289 11.8105 34.5439 12.0654 34.374 12.3115C34.1689 12.6514 33.8467 12.8564 33.4072 12.9268C33.4424 12.9678 33.4717 13.0059 33.4951 13.041C33.8467 13.0293 34.1221 12.9121 34.3213 12.6895C34.0869 13.0176 33.8555 13.2021 33.627 13.2432C33.6621 13.3018 33.6914 13.3545 33.7148 13.4014C34.3008 13.1143 34.6904 12.7217 34.8838 12.2236C35.042 11.8193 35.1211 11.4648 35.1211 11.1602C35.1211 11.002 35.1035 10.8555 35.0684 10.7207C34.9453 10.3457 34.6289 10.0557 34.1191 9.85059C33.8613 10.4189 33.3018 10.9053 32.4404 11.3096C32.5225 11.4443 32.6748 11.5117 32.8975 11.5117C32.9092 11.5117 32.9209 11.5059 32.9326 11.4941C33.1729 11.4941 33.3662 11.3594 33.5127 11.0898C33.3955 11.3711 33.2578 11.5703 33.0996 11.6875C33.4746 11.5586 33.7354 11.3594 33.8818 11.0898C33.7002 11.4883 33.3779 11.7725 32.915 11.9424C33.0264 11.9834 33.1406 12.0039 33.2578 12.0039C33.4043 12.0039 33.5566 11.9717 33.7148 11.9072C33.9961 11.8018 34.21 11.6143 34.3564 11.3447C34.1748 11.7549 33.9375 12.0156 33.6445 12.127C33.4746 12.1914 33.3047 12.2236 33.1348 12.2236C33.0234 12.2236 32.9209 12.209 32.8271 12.1797C32.9795 12.2559 33.1436 12.2939 33.3193 12.2939C33.4131 12.2939 33.5156 12.2822 33.627 12.2588C33.9023 12.1943 34.1338 12.0479 34.3213 11.8193C34.2217 12.0889 33.9346 12.3086 33.46 12.4785C33.9111 12.3672 34.2158 12.1885 34.374 11.9424ZM30.9639 12.2588C30.9287 12.5576 30.8555 12.7949 30.7441 12.9707C31.0605 12.7129 31.248 12.4375 31.3066 12.1445C31.2598 12.584 31.0371 12.9561 30.6387 13.2607C30.9141 13.2607 31.1689 13.1641 31.4033 12.9707C31.6553 12.7715 31.8076 12.5283 31.8604 12.2412C31.8193 12.6748 31.6113 13.0439 31.2363 13.3486C31.8691 13.1084 32.2266 12.7744 32.3086 12.3467C32.3262 12.2764 32.335 12.2031 32.335 12.127C32.335 11.7871 32.1826 11.4648 31.8779 11.1602C31.4854 10.7852 30.791 10.5801 29.7949 10.5449C30.2813 10.7031 30.5859 11.0781 30.709 11.6699C30.7324 11.793 30.7441 11.916 30.7441 12.0391C30.7441 12.4609 30.5684 12.7949 30.2168 13.041C30.6563 12.8066 30.9053 12.5459 30.9639 12.2588ZM26.8418 9.39356C26.5254 8.9541 26.3262 8.43848 26.2441 7.84668C26.3262 8.24512 26.4727 8.59668 26.6836 8.90137C26.7891 9.08301 26.9033 9.22363 27.0264 9.32324C27.1025 9.03027 27.1406 8.75488 27.1406 8.49707C27.1406 8.32715 27.1201 8.15723 27.0791 7.98731C27.1904 8.36816 27.2461 8.70215 27.2461 8.98926C27.2461 9.06543 27.2402 9.13867 27.2285 9.20899C27.3516 9.10352 27.4365 8.93359 27.4834 8.69922C27.5186 8.56445 27.5361 8.4209 27.5361 8.26856C27.5361 8.06934 27.5068 7.85547 27.4482 7.62695C27.5303 7.93164 27.5713 8.23633 27.5713 8.54102C27.5713 8.81641 27.5361 9.10059 27.4658 9.39356C27.7061 8.78418 27.8262 8.24512 27.8262 7.77637C27.8262 7.66504 27.8203 7.55371 27.8086 7.44238C27.7383 6.99121 27.6064 6.62207 27.4131 6.33496C27.7295 6.72168 27.9229 7.17578 27.9932 7.69727C28.0283 7.89063 28.0459 8.08106 28.0459 8.26856C28.0459 8.56738 27.999 8.8457 27.9053 9.10352L27.7559 9.44629C28.0371 9.0127 28.1777 8.61133 28.1777 8.24219L28.1777 8.11914C28.2246 8.44727 28.248 8.70801 28.248 8.90137C28.248 9.05957 28.2363 9.16797 28.2129 9.22656C28.1777 9.31445 28.1602 9.37012 28.1602 9.39356L28.1602 9.41113C28.1719 9.41113 28.1836 9.39941 28.1953 9.37598C28.2539 9.3291 28.3389 9.21484 28.4502 9.0332C28.6084 8.76367 28.6875 8.42969 28.6875 8.03125C28.6875 7.82031 28.6699 7.59473 28.6348 7.35449C28.5 6.66309 28.1396 6.15918 27.5537 5.84277C27.3018 5.71973 27.0703 5.6582 26.8594 5.6582C26.5723 5.6582 26.3174 5.77832 26.0947 6.01856C25.708 6.45801 25.5029 7 25.4795 7.64453C25.6025 7.7793 25.6992 7.91406 25.7695 8.04883C25.9277 8.34766 26.042 8.64356 26.1123 8.93652C26.4053 9.22949 26.6484 9.38184 26.8418 9.39356ZM29.1797 10.835C29.2617 11.0049 29.3027 11.1924 29.3027 11.3975L29.3027 11.5469C29.2793 11.8867 29.0977 12.1973 28.7578 12.4785C28.916 12.332 28.9951 12.1182 28.9951 11.8369C28.9951 11.7256 28.9834 11.5967 28.96 11.4502C28.8604 10.9932 28.6582 10.6592 28.3535 10.4482C28.5879 10.8408 28.7051 11.2129 28.7051 11.5645C28.7051 11.9629 28.5645 12.3379 28.2832 12.6895C28.4297 12.291 28.5029 11.9219 28.5029 11.582C28.5029 11.459 28.4912 11.3359 28.4678 11.2129C28.3916 10.8027 28.125 10.5918 27.668 10.5801L27.5713 10.5801C27.1494 10.5801 26.833 10.627 26.6221 10.7207C27.1611 11.0137 27.4717 11.3301 27.5537 11.6699C27.5771 11.7578 27.5889 11.8486 27.5889 11.9424C27.5889 12.1885 27.5039 12.4521 27.334 12.7334C27.4219 12.5635 27.4658 12.3848 27.4658 12.1973C27.4658 12.0918 27.4541 11.9893 27.4307 11.8896C27.3428 11.5498 27.1172 11.3184 26.7539 11.1953C26.5605 11.1484 26.3555 11.125 26.1387 11.125C25.9277 11.125 25.7139 11.1484 25.4971 11.1953L25.6025 11.1953C26.54 11.1953 27.0088 11.6523 27.0088 12.5664C27.0088 12.9648 26.9414 13.2432 26.8066 13.4014C26.9297 13.4541 27.0879 13.4805 27.2813 13.4805C27.5156 13.4805 27.8027 13.4424 28.1426 13.3662C29.1738 13.1729 29.7686 12.7656 29.9268 12.1445C29.9619 12.0391 29.9795 11.9307 29.9795 11.8193C29.9795 11.3799 29.7129 11.0518 29.1797 10.835ZM33.7852 9.19141C33.627 8.83984 33.3662 8.50586 33.0029 8.18945C32.751 7.96094 32.4551 7.80859 32.1152 7.73242C32.127 7.86719 32.1328 7.99023 32.1328 8.10156C32.1328 8.30664 32.1064 8.49414 32.0537 8.66406C31.8018 9.43164 31.4209 9.98535 30.9111 10.3252C30.9463 10.3721 31.0781 10.3955 31.3066 10.3955C31.3066 10.4072 31.3125 10.4131 31.3242 10.4131C31.5352 10.4131 31.7314 10.3105 31.9131 10.1055C32.1064 9.87695 32.209 9.61035 32.2207 9.30566L32.2207 9.42871C32.2207 9.83301 32.0742 10.1992 31.7813 10.5273C32.0508 10.4629 32.2764 10.3223 32.458 10.1055C32.6514 9.87695 32.7539 9.61035 32.7656 9.30566L32.7656 9.48145C32.7656 9.85059 32.6689 10.1436 32.4756 10.3604C32.3525 10.5186 32.2002 10.6328 32.0186 10.7031C32.2002 10.6797 32.376 10.6211 32.5459 10.5273C32.8154 10.3809 33 10.1611 33.0996 9.86816C33.0117 10.208 32.8828 10.457 32.7129 10.6152C33.4277 10.1055 33.7852 9.63086 33.7852 9.19141ZM33.4072 7.79395C33.6123 7.97559 33.7705 8.1748 33.8818 8.3916C33.7236 7.77051 33.3896 7.35742 32.8799 7.15234C32.6221 7.05273 32.3848 7.00293 32.168 7.00293C32.0801 7.00293 32.001 7.01172 31.9307 7.0293C31.9424 7.07617 31.9541 7.12305 31.9658 7.16992C32.5225 7.22852 33.0029 7.43652 33.4072 7.79395ZM22.3594 8.55859C22.3359 8.72852 22.3242 8.89258 22.3242 9.05078C22.3242 9.35547 22.3799 9.62207 22.4912 9.85059C22.6963 10.2373 22.9277 10.542 23.1855 10.7646C22.9043 10.46 22.6963 10.0703 22.5615 9.5957C22.4795 9.26758 22.4385 8.95703 22.4385 8.66406L22.4385 8.46192C22.4092 8.48535 22.3828 8.51758 22.3594 8.55859ZM22.5791 7.69727C22.9717 7.55078 23.3438 7.47754 23.6953 7.47754C24.0352 7.47754 24.3574 7.54492 24.6621 7.67969C24.2461 7.39844 23.8389 7.22266 23.4404 7.15234C23.3057 7.12891 23.1826 7.11719 23.0713 7.11719C22.8662 7.11719 22.7139 7.16406 22.6143 7.25781C22.5322 7.3457 22.4912 7.42481 22.4912 7.49512C22.4912 7.57129 22.5205 7.63867 22.5791 7.69727ZM24.46 8.17188C24.2139 8.07813 23.959 8.03125 23.6953 8.03125C23.4258 8.03125 23.1445 8.07813 22.8516 8.17188C22.8516 8.46484 22.9014 8.76953 23.001 9.08594C23.1709 9.63086 23.5049 10.123 24.0029 10.5625C23.7217 9.77149 23.5811 9.12109 23.5811 8.61133C23.5811 8.44141 23.5928 8.28906 23.6162 8.1543C23.6045 8.27734 23.5986 8.40039 23.5986 8.52344C23.5986 8.81055 23.6484 9.11817 23.748 9.44629C23.918 9.98535 24.1611 10.4043 24.4775 10.7031C24.2959 10.4512 24.1494 10.1436 24.0381 9.78027C23.9561 9.48731 23.915 9.18848 23.915 8.88379C23.915 8.64356 23.9385 8.40039 23.9854 8.1543C23.9736 8.27734 23.9678 8.40039 23.9678 8.52344C23.9678 8.81055 24.0146 9.11817 24.1084 9.44629C24.2197 9.81543 24.3662 10.126 24.5479 10.3779C24.4893 10.2432 24.4424 10.1025 24.4072 9.95606C24.3193 9.66895 24.2754 9.37305 24.2754 9.06836C24.2754 8.82227 24.2988 8.5791 24.3457 8.33887C24.334 8.46192 24.3281 8.58203 24.3281 8.69922C24.3281 8.99219 24.3779 9.30274 24.4775 9.63086C24.5596 9.92383 24.7764 10.3135 25.1279 10.7998C25.1572 10.665 25.1719 10.5303 25.1719 10.3955C25.1719 10.3135 25.166 10.2285 25.1543 10.1406C25.1367 9.61914 24.9902 9.15918 24.7148 8.76074C25.1777 9.31738 25.415 9.89453 25.4268 10.4922C25.4502 10.293 25.4619 10.1084 25.4619 9.93848C25.4619 9.5166 25.3828 9.1416 25.2246 8.81348C25.4531 9.22363 25.5996 9.56934 25.6641 9.85059C25.6758 9.79199 25.6816 9.73047 25.6816 9.66602C25.6816 9.41406 25.6025 9.16504 25.4443 8.91895C25.251 8.61426 24.9229 8.36524 24.46 8.17188ZM22.4912 8.40918C22.5029 8.67871 22.5498 8.96582 22.6318 9.27051C22.8018 9.81543 23.2207 10.3486 23.8887 10.8701C23.4082 10.4424 23.0889 9.95606 22.9307 9.41113C22.8311 9.07129 22.7813 8.75488 22.7813 8.46192C22.7813 8.37988 22.7871 8.29492 22.7988 8.20703C22.6875 8.27149 22.585 8.33887 22.4912 8.40918ZM20.7422 10.5098C20.5313 10.6797 20.3789 10.8672 20.2852 11.0723C20.6836 11.8516 21.1201 12.3115 21.5947 12.4521C21.9346 12.5635 22.207 12.6191 22.4121 12.6191C22.4883 12.6191 22.5498 12.6133 22.5967 12.6016C21.6357 12.2852 21.0469 11.8662 20.8301 11.3447C21.0352 11.626 21.3457 11.8574 21.7617 12.0391C21.4219 11.8574 21.2402 11.4854 21.2168 10.9229C21.334 11.3271 21.5098 11.6025 21.7441 11.749C21.9844 11.9775 22.3066 12.0977 22.7109 12.1094C21.7969 11.7227 21.3398 11.1514 21.3398 10.3955L21.3398 10.3076C21.4277 10.7588 21.7148 11.1543 22.2012 11.4941C22.5527 11.7461 22.9512 11.8721 23.3965 11.8721C23.584 11.8721 23.7744 11.8545 23.9678 11.8193L23.7305 11.8193C23.209 11.8193 22.7959 11.7109 22.4912 11.4941C22.1514 11.2363 21.9697 10.8643 21.9463 10.3779C21.9932 10.7061 22.1689 10.9785 22.4736 11.1953C22.7783 11.4297 23.1182 11.5527 23.4932 11.5645C22.8838 11.3301 22.3799 10.832 21.9814 10.0703L21.9814 10.0527C21.5068 10.0645 21.0938 10.2168 20.7422 10.5098ZM20.3555 10.1055C20.7832 9.75391 21.2695 9.56055 21.8145 9.52539C21.8145 9.47266 21.8086 9.42285 21.7969 9.37598C21.2637 9.46387 20.8271 9.64551 20.4873 9.9209C20.1709 10.1904 20.0127 10.3662 20.0127 10.4482L20.0127 10.4658C20.1064 10.3369 20.2207 10.2168 20.3555 10.1055ZM23.2207 15.0801C22.623 15.4434 22.1309 15.625 21.7441 15.625C21.709 15.625 21.6709 15.6191 21.6299 15.6074C21.2197 15.5723 20.918 15.3174 20.7246 14.8428C20.8418 15.1006 21.085 15.2705 21.4541 15.3525C21.5479 15.376 21.6563 15.3877 21.7793 15.3877C22.0313 15.3877 22.3037 15.3232 22.5967 15.1943C22.8545 15.083 23.0625 14.8516 23.2207 14.5C22.793 14.875 22.3857 15.0742 21.999 15.0977L21.8848 15.0977C21.5566 15.0977 21.2783 15.001 21.0498 14.8076C21.1963 14.8662 21.3896 14.8955 21.6299 14.8955L21.8496 14.8955C22.3828 14.8721 22.8516 14.5439 23.2559 13.9111C22.9277 14.292 22.5703 14.5234 22.1836 14.6055C21.9727 14.6523 21.7529 14.6758 21.5244 14.6758C21.3662 14.6758 21.208 14.6641 21.0498 14.6406C20.6631 14.582 20.4258 14.5029 20.3379 14.4033C20.2793 14.3564 20.2324 14.333 20.1973 14.333C20.168 14.333 20.1475 14.3447 20.1357 14.3682C20.124 14.3916 20.1182 14.4238 20.1182 14.4648C20.1182 14.582 20.168 14.8047 20.2676 15.1328C20.373 15.4844 20.6162 15.7334 20.9971 15.8799C21.1904 15.9678 21.3955 16.0117 21.6123 16.0117C21.7939 16.0117 21.9756 15.9883 22.1572 15.9414C22.0518 15.9531 21.9492 15.959 21.8496 15.959C21.5859 15.959 21.3369 15.9033 21.1025 15.792C20.7627 15.6338 20.5693 15.3467 20.5225 14.9307C20.7275 15.4932 21.0908 15.7803 21.6123 15.792C21.6357 15.8037 21.6533 15.8096 21.665 15.8096C22.1807 15.8096 22.6992 15.5664 23.2207 15.0801ZM20.6104 14.0957C20.8916 14.1953 21.167 14.2451 21.4365 14.2451C21.8115 14.2451 22.1689 14.1396 22.5088 13.9287C23.0537 13.5889 23.376 13.2871 23.4756 13.0234C23.083 13.3867 22.6699 13.6709 22.2363 13.876C21.9082 14.0459 21.5244 14.1309 21.085 14.1309C20.9385 14.1309 20.7803 14.1191 20.6104 14.0957ZM31.7461 17.2158C31.8457 17.3096 31.8955 17.4473 31.8955 17.6289L31.8955 17.6904C31.8604 17.5029 31.7197 17.374 31.4736 17.3037C31.5088 17.374 31.5264 17.4648 31.5264 17.5762C31.5264 17.7227 31.4912 17.8984 31.4209 18.1035L31.4209 18.0332C31.4209 17.8164 31.2861 17.6406 31.0166 17.5059C31.0283 17.5527 31.0342 17.6143 31.0342 17.6904C31.0342 17.8193 31.0107 17.9746 30.9639 18.1563L30.9639 18.0684C30.9639 17.8516 30.8555 17.6816 30.6387 17.5586C30.6621 17.6348 30.6738 17.7139 30.6738 17.7959C30.6738 18.001 30.5947 18.2559 30.4365 18.5605C30.4951 18.4258 30.5244 18.2998 30.5244 18.1826C30.5244 18.0361 30.4775 17.9014 30.3838 17.7783C30.3428 17.7314 30.2871 17.708 30.2168 17.708C30.1582 17.708 30.0908 17.7197 30.0146 17.7432C29.9912 17.8779 29.9121 18.0947 29.7773 18.3936C29.9355 18.5049 30.0879 18.5781 30.2344 18.6133C30.334 18.6367 30.4365 18.6484 30.542 18.6484C30.8467 18.6484 31.1689 18.5342 31.5088 18.3057C31.96 17.9893 32.2031 17.6318 32.2383 17.2334L32.2383 17.1367C32.2383 17.043 32.2266 16.9404 32.2031 16.8291C32.0566 16.999 31.9043 17.1279 31.7461 17.2158ZM25.4268 17.5762C25.4268 17.916 25.3037 18.2148 25.0576 18.4727C25.1572 18.3262 25.207 18.1123 25.207 17.8311L25.207 17.6465C25.1426 17.9863 24.8994 18.2852 24.4775 18.543C24.6709 18.3613 24.8174 18.0566 24.917 17.6289C24.4775 18.0684 24.0557 18.332 23.6514 18.4199C23.6689 18.5371 23.6953 18.6631 23.7305 18.7979C23.9355 18.8213 24.1348 18.833 24.3281 18.833C25.377 18.833 26.1563 18.5313 26.666 17.9277C26.3848 17.8281 26.1592 17.7109 25.9893 17.5762C26.001 17.6523 26.0068 17.7314 26.0068 17.8135C26.0068 18.042 25.9395 18.2617 25.8047 18.4727C25.8398 18.3848 25.8574 18.2734 25.8574 18.1387C25.8574 17.9688 25.834 17.7695 25.7871 17.541L25.7871 17.5938C25.7871 17.9863 25.6729 18.3027 25.4443 18.543C25.5264 18.4199 25.5674 18.2148 25.5674 17.9277C25.5674 17.8047 25.5615 17.6699 25.5498 17.5234C25.5146 17.5469 25.4736 17.5645 25.4268 17.5762ZM22.2539 17.5762C22.4824 17.8223 22.7783 17.9453 23.1416 17.9453L23.2383 17.9453C23.6484 17.916 23.9326 17.6611 24.0908 17.1807C23.7158 17.5908 23.3027 17.8018 22.8516 17.8135C23.1445 17.7783 23.4551 17.5967 23.7832 17.2686C23.5137 17.4502 23.2148 17.541 22.8867 17.541C22.793 17.541 22.6963 17.5352 22.5967 17.5234L22.6318 17.5234C22.9248 17.5234 23.3027 17.2246 23.7656 16.627C23.168 16.9551 22.6523 17.1191 22.2188 17.1191C22.1074 17.1191 21.9961 17.1074 21.8848 17.084C21.9609 17.2188 22.084 17.3828 22.2539 17.5762ZM22.2188 16.9434C22.2539 16.9551 22.2891 16.9609 22.3242 16.9609C22.5293 16.9609 22.7959 16.8701 23.124 16.6885C23.4639 16.501 23.6338 16.1465 23.6338 15.625L23.6338 15.4229C23.042 16.1436 22.4004 16.5508 21.709 16.6445C21.8262 16.8027 21.9961 16.9023 22.2188 16.9434ZM27.2813 18.7627C27.4395 18.5342 27.5186 18.291 27.5186 18.0332L27.2461 18.0332C27.123 18.2383 26.9297 18.4873 26.666 18.7803C26.7832 18.9736 26.9209 19.1816 27.0791 19.4043C28.3916 19.0352 29.1592 18.543 29.3818 17.9277L29.2852 17.9277C29.1504 17.9277 28.9688 17.9072 28.7402 17.8662C28.752 17.9307 28.7578 17.9922 28.7578 18.0508C28.7578 18.209 28.7227 18.373 28.6523 18.543C28.6758 18.4727 28.6875 18.3994 28.6875 18.3232C28.6875 18.165 28.6377 17.9951 28.5381 17.8135L28.5381 17.9277C28.5381 18.1797 28.459 18.4463 28.3008 18.7275C28.3242 18.6514 28.3359 18.5781 28.3359 18.5078C28.3359 18.3379 28.2832 18.1445 28.1777 17.9277L28.1777 18.0859C28.1777 18.4375 28.0723 18.7539 27.8613 19.0352C27.9375 18.9121 27.9756 18.7305 27.9756 18.4902C27.9756 18.3438 27.9639 18.1738 27.9404 17.9805C27.8525 18.0039 27.7676 18.0215 27.6855 18.0332C27.6328 18.2383 27.498 18.4814 27.2813 18.7627ZM34.084 15.1943C34.0547 15.1533 34.0049 15.1328 33.9346 15.1328C33.876 15.1328 33.7852 15.1533 33.6621 15.1943C33.7969 15.3232 33.917 15.4844 34.0225 15.6777C34.1338 15.4023 34.1895 15.1357 34.1895 14.8779C34.1895 14.5498 34.0986 14.2539 33.917 13.9902C33.917 14.4238 33.8789 14.7314 33.8027 14.9131C33.9492 14.9893 34.043 15.083 34.084 15.1943ZM32.6426 15.7744C32.6309 15.9326 32.6045 16.0645 32.5635 16.1699C32.6162 16.293 32.6602 16.4102 32.6953 16.5215L32.8008 16.5215C32.959 16.5215 33.1055 16.498 33.2402 16.4512C33.1172 16.123 32.918 15.8975 32.6426 15.7744ZM33.5918 15.959C33.5039 15.7891 33.334 15.6777 33.082 15.625C33.2109 15.8184 33.3018 16.0732 33.3545 16.3896C33.6064 16.2725 33.8174 16.0615 33.9873 15.7568C33.8818 15.5518 33.6885 15.4492 33.4072 15.4492C33.4658 15.5898 33.5273 15.7598 33.5918 15.959ZM25.9365 14.8955C25.6201 15.1299 25.3213 15.2471 25.04 15.2471C24.9932 15.2471 24.9463 15.2412 24.8994 15.2295C24.5947 15.1533 24.3311 14.9277 24.1084 14.5527C24.2783 14.793 24.5039 14.9395 24.7852 14.9922C24.8613 15.0039 24.9346 15.0098 25.0049 15.0098C25.1748 15.0098 25.3389 14.9717 25.4971 14.8955C25.4385 14.9072 25.3711 14.9131 25.2949 14.9131C25.2363 14.9131 25.1689 14.9072 25.0928 14.8955C24.7764 14.8369 24.5156 14.6084 24.3105 14.21C24.4805 14.4502 24.7061 14.5996 24.9873 14.6582C25.0576 14.6699 25.1309 14.6758 25.207 14.6758C25.3535 14.6758 25.4912 14.6465 25.6201 14.5879C25.2686 14.5293 24.9961 14.3037 24.8027 13.9111C24.9609 14.1689 25.1748 14.3213 25.4443 14.3682L25.5146 14.3682C25.6963 14.3682 25.8896 14.2949 26.0947 14.1484C25.9658 14.2012 25.834 14.2275 25.6992 14.2275C25.3477 14.2275 25.0254 14.0576 24.7324 13.7178C24.5859 13.5479 24.5127 13.334 24.5127 13.0762C24.5127 12.625 24.7441 12.0303 25.207 11.292C24.1348 12.2764 23.5869 13.1436 23.5635 13.8936C23.5518 13.9463 23.5459 13.9961 23.5459 14.043C23.5459 14.7109 23.7656 15.1416 24.2051 15.335C24.4102 15.4463 24.6211 15.502 24.8379 15.502C25.0605 15.502 25.2803 15.4404 25.4971 15.3174C25.6787 15.2061 25.8252 15.0654 25.9365 14.8955ZM27.9404 16.1172C28.0459 15.7656 28.0986 15.4141 28.0986 15.0625L28.0986 14.8604C28.0752 14.4385 27.9111 14.0693 27.6064 13.7529C27.5947 13.7529 27.5889 13.7588 27.5889 13.7705C27.7705 14.0459 27.8701 14.3799 27.8877 14.7725L27.8877 14.9131C27.8877 15.3643 27.7881 15.8564 27.5889 16.3896C27.7002 16.0264 27.7559 15.6689 27.7559 15.3174L27.7559 15.1152C27.7324 14.6523 27.5859 14.2627 27.3164 13.9463C27.3047 13.9639 27.293 13.9785 27.2813 13.9902C27.3164 14.1602 27.3398 14.3535 27.3516 14.5703L27.3516 14.7197C27.3516 15.165 27.2549 15.6572 27.0615 16.1963C27.1729 15.8271 27.2285 15.4668 27.2285 15.1152L27.2285 14.9131C27.2168 14.6494 27.1729 14.4209 27.0967 14.2275C27.0732 14.2744 27.0498 14.3213 27.0264 14.3682L27.0264 14.6582C27.0264 15.2207 26.9414 15.7568 26.7715 16.2666C26.8477 16.0322 26.8857 15.7715 26.8857 15.4844C26.8857 15.2383 26.8594 14.9834 26.8066 14.7197C26.7949 15.9443 26.5576 16.7207 26.0947 17.0488C26.3291 16.6738 26.4463 16.3223 26.4463 15.9941C26.4463 15.7129 26.3555 15.458 26.1738 15.2295C25.9395 15.5283 25.6465 15.71 25.2949 15.7744C25.1484 15.7979 25.0078 15.8096 24.873 15.8096C24.668 15.8096 24.4629 15.7803 24.2578 15.7217L23.8535 15.5898C23.9297 16.1113 24.1436 16.3721 24.4951 16.3721C24.5068 16.3721 24.5127 16.3662 24.5127 16.3545C24.876 16.3545 25.0811 16.1904 25.1279 15.8623C25.1162 16.2432 25.0459 16.542 24.917 16.7588L24.9346 16.7588C25.1514 16.5537 25.3008 16.3047 25.3828 16.0117C25.3359 16.252 25.2891 16.4219 25.2422 16.5215C25.3887 16.3867 25.5029 16.2227 25.585 16.0293C25.4268 16.4688 25.1543 16.8262 24.7676 17.1016L24.9346 17.1016C25.1748 17.1016 25.3682 17.0605 25.5146 16.9785C25.8076 16.7969 26.0273 16.5537 26.1738 16.249C25.9922 16.7236 25.7432 17.0518 25.4268 17.2334L25.5498 17.2334C25.6846 17.2334 25.8252 17.2217 25.9717 17.1982C26.0947 17.2451 26.2207 17.2686 26.3496 17.2686C26.4375 17.2686 26.5371 17.2568 26.6484 17.2334C26.8887 17.1807 27.0205 16.9434 27.0439 16.5215C27.0439 16.9609 27.0029 17.2715 26.9209 17.4531C27.126 17.3535 27.2578 17.1953 27.3164 16.9785C27.2813 17.2188 27.252 17.3887 27.2285 17.4883C27.375 17.4238 27.4717 17.3271 27.5186 17.1982C27.5186 17.2568 27.4893 17.3535 27.4307 17.4883C27.7354 17.4766 28.0078 17.4092 28.248 17.2861C28.4063 17.333 28.5703 17.3564 28.7402 17.3564C28.8516 17.3564 28.9658 17.3447 29.083 17.3213C28.8779 17.1279 28.752 16.8848 28.7051 16.5918C28.7637 16.7734 28.9102 16.9551 29.1445 17.1367C28.998 16.9316 28.9248 16.6973 28.9248 16.4336C28.96 16.6387 29.1182 16.7881 29.3994 16.8818C29.4932 16.9346 29.584 16.9609 29.6719 16.9609C29.8418 16.9609 29.9941 16.8994 30.1289 16.7764L30.1816 16.7764C30.2637 16.7764 30.3047 16.7266 30.3047 16.627L30.3047 16.5918L30.7266 16.7939C30.5801 16.6475 30.4219 16.46 30.252 16.2314C30.4219 16.4131 30.665 16.5713 30.9814 16.7061C30.8115 16.5068 30.6123 16.2373 30.3838 15.8975C30.542 16.0967 30.7793 16.2666 31.0957 16.4072C30.8262 16.2021 30.5947 15.918 30.4014 15.5547C30.5479 15.7715 30.7705 15.9707 31.0693 16.1523C31.2275 16.252 31.3857 16.3018 31.5439 16.3018C31.6436 16.3018 31.7432 16.2842 31.8428 16.249C32.083 16.1611 32.3057 15.9473 32.5107 15.6074C33.2432 15.0859 33.6094 14.582 33.6094 14.0957L33.6094 14.0254C33.5684 13.5273 33.4043 13.1436 33.1172 12.874C32.9355 12.7158 32.8125 12.6367 32.748 12.6367C32.7129 12.6367 32.6953 12.6689 32.6953 12.7334L32.6953 12.8213C32.6953 13.0146 32.5986 13.2754 32.4053 13.6035C32.124 14.0898 31.7578 14.333 31.3066 14.333L31.2188 14.333C31.3418 14.3682 31.4707 14.3857 31.6055 14.3857C31.6641 14.3857 31.7285 14.3799 31.7988 14.3682C32.0801 14.3213 32.2998 14.1689 32.458 13.9111C32.2529 14.3037 31.998 14.5293 31.6934 14.5879C31.8047 14.6465 31.9248 14.6758 32.0537 14.6758C32.1299 14.6758 32.2031 14.6699 32.2734 14.6582C32.5547 14.5996 32.7744 14.4502 32.9326 14.21C32.7275 14.6084 32.4668 14.8369 32.1504 14.8955C32.0859 14.9072 32.0186 14.9131 31.9482 14.9131C31.8896 14.9131 31.8281 14.9072 31.7637 14.8955C31.9219 14.9717 32.0859 15.0098 32.2559 15.0098C32.332 15.0098 32.4053 15.0039 32.4756 14.9922C32.7568 14.9395 32.9766 14.793 33.1348 14.5527C32.9297 14.9277 32.6748 15.1533 32.3701 15.2295C32.3057 15.2412 32.2441 15.2471 32.1855 15.2471C31.916 15.2471 31.667 15.1621 31.4385 14.9922C31.5498 15.1387 31.7197 15.2471 31.9482 15.3174C32.1182 15.3877 32.2822 15.4229 32.4404 15.4229L32.5107 15.4229C32.3291 15.4639 32.1592 15.4844 32.001 15.4844C31.5264 15.4844 31.1455 15.3203 30.8584 14.9922C30.4424 14.541 30.2051 14.207 30.1465 13.9902C30.2402 14.5469 30.4395 14.9307 30.7441 15.1416C31.0488 15.3467 31.3213 15.4902 31.5615 15.5723C31.1631 15.5488 30.8027 15.4316 30.4805 15.2207C30.1582 15.0039 29.9561 14.5996 29.874 14.0078C29.8447 14.1895 29.8301 14.3477 29.8301 14.4824C29.8301 14.7813 29.8799 14.9805 29.9795 15.0801C29.6982 14.875 29.5518 14.626 29.54 14.333L29.6895 13.7881C29.543 13.9814 29.4697 14.2715 29.4697 14.6582C29.4697 15.0977 29.5664 15.6631 29.7598 16.3545C29.3496 15.7217 28.9307 14.8486 28.5029 13.7354C28.6494 14.2686 28.7227 14.7285 28.7227 15.1152C28.7227 15.5664 28.6201 15.9004 28.415 16.1172C28.4033 15.5723 28.3418 15.1064 28.2305 14.7197C28.2188 15.1533 28.1221 15.6191 27.9404 16.1172ZM20.6279 13.6387C20.7041 13.6621 20.7832 13.6738 20.8652 13.6738C21.1934 13.6738 21.6738 13.5039 22.3066 13.1641C22.0898 13.1523 21.8643 13.1113 21.6299 13.041C21.1846 13.1113 20.8506 13.3105 20.6279 13.6387ZM28.7051 9.63086C29.1035 9.42578 29.3027 9.2002 29.3027 8.9541C29.3027 8.93066 29.2969 8.90137 29.2852 8.86621C29.3613 9.07129 29.3994 9.25879 29.3994 9.42871C29.3994 9.5752 29.373 9.7041 29.3203 9.81543C29.4785 9.7041 29.6133 9.55176 29.7246 9.3584C29.8242 9.16504 29.874 8.97168 29.874 8.77832C29.9092 8.84863 29.9268 8.93066 29.9268 9.02441C29.9268 9.18262 29.8828 9.37305 29.7949 9.5957C29.7363 9.70703 29.6689 9.79785 29.5928 9.86816C29.7393 9.75684 29.874 9.61035 29.9971 9.42871C30.2139 9.11231 30.3223 8.77246 30.3223 8.40918L30.3223 8.30371C30.2988 7.96387 30.1729 7.70313 29.9443 7.52148C30.3076 7.75 30.501 8.05762 30.5244 8.44434L30.5244 8.55859C30.5244 8.91016 30.416 9.25 30.1992 9.57813C30.1406 9.68359 30.0674 9.78027 29.9795 9.86816C30.1377 9.79785 30.2783 9.68945 30.4014 9.54297C30.5947 9.30859 30.6973 9.03906 30.709 8.73438L30.709 8.91895C30.709 9.28223 30.6123 9.5752 30.4189 9.79785C30.3076 9.94434 30.1494 10.0586 29.9443 10.1406C30.1611 10.1172 30.3721 10.0381 30.5771 9.90332C30.9814 9.65137 31.2979 9.19141 31.5264 8.52344C31.5791 8.37695 31.6055 8.21875 31.6055 8.04883C31.6055 7.45117 31.3066 6.71582 30.709 5.84277C29.9531 6.10645 29.3877 6.41406 29.0127 6.76563C29.1006 7.18164 29.1445 7.56543 29.1445 7.91699C29.1445 8.57324 28.998 9.14453 28.7051 9.63086ZM28.7227 6.33496C29.0273 6.07715 29.4111 5.83984 29.874 5.62305C29.4346 5.64648 29.0156 5.83984 28.6172 6.20313C28.6523 6.23828 28.6875 6.28223 28.7227 6.33496Z" fill="#E0CD67"/>
</svg>
